<svg width="20" height="18" viewBox="0 0 20 18" fill="none" xmlns="http://www.w3.org/2000/svg">
<path fill-rule="evenodd" clip-rule="evenodd" d="M16.6001 4.5C16.6001 6.98528 14.5854 9 12.1001 9C9.6148 9 7.60009 6.98528 7.60009 4.5C7.60009 2.01472 9.6148 0 12.1001 0C14.5854 0 16.6001 2.01472 16.6001 4.5ZM15.1001 4.5C15.1001 6.15685 13.7569 7.5 12.1001 7.5C10.4432 7.5 9.10009 6.15685 9.10009 4.5C9.10009 2.84315 10.4432 1.5 12.1001 1.5C13.7569 1.5 15.1001 2.84315 15.1001 4.5Z" fill="white"/>
<path fill-rule="evenodd" clip-rule="evenodd" d="M19.3001 13.95C19.3001 16.1867 16.0765 18 12.1001 18C8.12364 18 4.90009 16.1867 4.90009 13.95C4.90009 11.7132 8.12364 9.89999 12.1001 9.89999C16.0765 9.89999 19.3001 11.7132 19.3001 13.95ZM17.8001 13.95C17.8001 14.2858 17.5423 14.8953 16.4559 15.5064C15.4164 16.0911 13.8795 16.5 12.1001 16.5C10.3207 16.5 8.78373 16.0911 7.74431 15.5064C6.65787 14.8953 6.40009 14.2858 6.40009 13.95C6.40009 13.6142 6.65787 13.0047 7.74431 12.3936C8.78373 11.8089 10.3207 11.4 12.1001 11.4C13.8795 11.4 15.4164 11.8089 16.4559 12.3936C17.5423 13.0047 17.8001 13.6142 17.8001 13.95Z" fill="white"/>
<path d="M7.1001 1.53222C7.1001 1.24587 6.88645 1 6.6001 1C4.39096 1 2.6001 2.79086 2.6001 5C2.6001 7.20914 4.39096 9 6.6001 9C6.88645 9 7.1001 8.75413 7.1001 8.46778V7.95333C7.1001 7.69321 6.86021 7.5 6.6001 7.5C5.21939 7.5 4.1001 6.38071 4.1001 5C4.1001 3.61929 5.21939 2.5 6.6001 2.5C6.86021 2.5 7.1001 2.30679 7.1001 2.04667V1.53222Z" fill="white"/>
<path d="M3.67824 10.5237C4.14346 10.3683 4.6001 10.7343 4.6001 11.2248C4.6001 11.5715 4.36549 11.8704 4.03865 11.9859C3.73496 12.0932 3.459 12.2145 3.21505 12.3458C2.23618 12.8729 2.1001 13.3497 2.1001 13.5C2.1001 13.6503 2.23618 14.1271 3.21505 14.6542C3.459 14.7855 3.73496 14.9068 4.03865 15.0141C4.36549 15.1296 4.6001 15.4285 4.6001 15.7752C4.6001 16.2657 4.14346 16.6317 3.67824 16.4763C1.83055 15.8591 0.600098 14.7569 0.600098 13.5C0.600098 12.2431 1.83055 11.1409 3.67824 10.5237Z" fill="white"/>
</svg>
