<svg width="20" height="16" viewBox="0 0 20 16" fill="none" xmlns="http://www.w3.org/2000/svg">
<path d="M15.4697 1.53033C15.1768 1.23744 15.1768 0.762562 15.4697 0.469669C15.7626 0.176776 16.2374 0.176777 16.5303 0.469671L19.5283 3.4676C19.6652 3.60348 19.75 3.79184 19.75 4.00001C19.75 4.19314 19.677 4.36922 19.5571 4.50217C19.5484 4.51176 19.5395 4.52116 19.5303 4.53034L16.5303 7.53033C16.2374 7.82322 15.7626 7.82322 15.4697 7.53033C15.1768 7.23744 15.1768 6.76256 15.4697 6.46967L17.1893 4.75H7C6.58579 4.75 6.25 4.41421 6.25 4C6.25 3.58579 6.58579 3.25 7 3.25H17.1893L15.4697 1.53033Z" fill="#0D3B6F"/>
<path d="M2.81066 11.25L4.53033 9.53033C4.82322 9.23744 4.82322 8.76256 4.53033 8.46967C4.23744 8.17678 3.76256 8.17678 3.46967 8.46967L0.46967 11.4697C0.397763 11.5416 0.343509 11.6245 0.306909 11.7129C0.270239 11.8013 0.25 11.8983 0.25 12C0.25 12.1017 0.270239 12.1987 0.306909 12.2871C0.343509 12.3755 0.397762 12.4584 0.469669 12.5303L3.46967 15.5303C3.76256 15.8232 4.23744 15.8232 4.53033 15.5303C4.82322 15.2374 4.82322 14.7626 4.53033 14.4697L2.81066 12.75H13C13.4142 12.75 13.75 12.4142 13.75 12C13.75 11.5858 13.4142 11.25 13 11.25H2.81066Z" fill="#0D3B6F"/>
</svg>
