<svg version="1.2" xmlns="http://www.w3.org/2000/svg" viewBox="0 0 630 630" width="630" height="630">
	<title>warning-triangle-svgrepo-com</title>
	<style>
		.s0 { fill: #ffc000 } 
	</style>
	<path class="s0" d="m320.34 14.84c27.29 1.55 50 14.56 63.7 41.01l224.2 452.6c21.73 45.75-11.93 107.31-67.17 108.2h-451.48c-50.28-0.8-91.53-57.89-66.9-108.7l228.39-452.59c4.27-8.12 6.22-10.47 9.91-14.74 14.82-17.18 31.04-26.38 59.35-25.78zm-3.69 49.96c-8.59 0.42-16.45 5.24-20.74 12.71-78.9 149.74-154.96 301.02-228.76 453.34-6.82 15.31 4.89 34.96 22.03 35.79 150.75 2.44 301.56 2.44 452.31 0 16.56-0.8 29.01-19.8 22.11-35.63-72.41-152.3-147.06-303.57-224.57-453.34-4.58-8.13-11.29-13.02-22.38-12.87z"/>
	<path class="s0" d="m335.39 422.26h-41.85l-4.6-205.61h51.25zm-47.85 62.88q-0.01-11.42 7.4-18.93 7.42-7.51 20.22-7.51 12.82 0 20.23 7.51 7.41 7.51 7.41 18.93-0.01 11-7.21 18.41-7.21 7.41-20.43 7.41-13.21 0-20.42-7.41-7.2-7.41-7.2-18.41z"/>
</svg>